<svg preserveAspectRatio="none" overflow="visible" style="display: block;" width="24" height="24" viewBox="0 0 24 24" fill="none" xmlns="http://www.w3.org/2000/svg">
<g id="meteor-icons-objects-column 1">
<rect width="24" height="24" fill="white" fill-opacity="0.01"/>
<path id="Shape" d="M9.25 17C9.25 16.8619 9.13807 16.75 9 16.75H4C3.86193 16.75 3.75 16.8619 3.75 17V20C3.75 20.1381 3.86193 20.25 4 20.25H9C9.13807 20.25 9.25 20.1381 9.25 20V17ZM20.25 13C20.25 12.8619 20.1381 12.75 20 12.75H15C14.8619 12.75 14.75 12.8619 14.75 13V20C14.75 20.1381 14.8619 20.25 15 20.25H20C20.1381 20.25 20.25 20.1381 20.25 20V13ZM9.25 4C9.25 3.86193 9.13807 3.75 9 3.75H4C3.86193 3.75 3.75 3.86193 3.75 4V11C3.75 11.1381 3.86193 11.25 4 11.25H9C9.13807 11.25 9.25 11.1381 9.25 11V4ZM20.25 4C20.25 3.86193 20.1381 3.75 20 3.75H15C14.8619 3.75 14.75 3.86193 14.75 4V7C14.75 7.13807 14.8619 7.25 15 7.25H20C20.1381 7.25 20.25 7.13807 20.25 7V4ZM10.75 20C10.75 20.9665 9.9665 21.75 9 21.75H4C3.0335 21.75 2.25 20.9665 2.25 20V17C2.25 16.0335 3.0335 15.25 4 15.25H9C9.9665 15.25 10.75 16.0335 10.75 17V20ZM21.75 20C21.75 20.9665 20.9665 21.75 20 21.75H15C14.0335 21.75 13.25 20.9665 13.25 20V13C13.25 12.0335 14.0335 11.25 15 11.25H20C20.9665 11.25 21.75 12.0335 21.75 13V20ZM10.75 11C10.75 11.9665 9.9665 12.75 9 12.75H4C3.0335 12.75 2.25 11.9665 2.25 11V4C2.25 3.0335 3.0335 2.25 4 2.25H9C9.9665 2.25 10.75 3.0335 10.75 4V11ZM21.75 7C21.75 7.9665 20.9665 8.75 20 8.75H15C14.0335 8.75 13.25 7.9665 13.25 7V4C13.25 3.0335 14.0335 2.25 15 2.25H20C20.9665 2.25 21.75 3.0335 21.75 4V7Z" fill="#1B2324"/>
</g>
</svg>
